<?xml version="1.0" encoding="UTF-8"?><svg id="Layer_1" xmlns="http://www.w3.org/2000/svg" viewBox="0 0 200 200"><path d="M100.92,48.28h72.86c1.12,0,2.03.91,2.03,2.03v89.31c0,.73-.59,1.32-1.32,1.32h-73.57V48.28h0Z" fill="#413330"/><path d="M28.05,48.28h72.87v92.65H27.34c-.73,0-1.32-.59-1.32-1.32V50.31c0-1.12.91-2.03,2.03-2.03Z" fill="#413330"/><path d="M100.92,137.14H28.96c-1.62,0-2.94-1.32-2.94-2.94V49.18c0-2.49,2.02-4.51,4.51-4.52l70.39-.18v92.65Z" fill="#554a45"/><path d="M172.87,137.14h-71.95V44.48l70.39.18c2.49,0,4.51,2.03,4.51,4.52v85.02c0,1.62-1.32,2.94-2.94,2.94Z" fill="#554a45"/><path d="M100.92,137.14s-40.57-11.5-68.08-6.61V37.12s48.35-2.67,67.36,13.36c0,35.56.72,86.65.72,86.65Z" fill="#50c5d5"/><path d="M100.92,137.14s40.57-11.5,68.08-6.61V37.12s-48.35-2.67-67.36,13.36c0,35.56-.72,86.65-.72,86.65Z" fill="#50c5d5"/><path d="M100.92,44.79s-7.55-15.04-62.58-15.04v92.93s37.68-1.16,62.58,14.46V44.79Z" fill="#b5e3ef"/><path d="M100.92,44.79s7.55-15.04,62.58-15.04v92.93s-37.68-1.16-62.58,14.46V44.79Z" fill="#bfe6f2"/><rect x="54.52" y="160.07" width="67.27" height="1.89" fill="#ed8e22"/><rect x="54.52" y="161.96" width="67.27" height="3.78" fill="#fbaa2d"/><rect x="54.52" y="165.74" width="67.27" height="1.89" fill="#ee8e22"/><polygon points="121.79 160.07 135.88 163.85 121.79 167.63 121.79 160.07" fill="#f6edd5"/><polygon points="135.88 163.85 129.97 162.26 129.97 165.44 135.88 163.85" fill="#554a45"/><path d="M46.81,160.07h7.71v7.57h-7.71c-.33,0-.59-.27-.59-.59v-6.38c0-.33.27-.59.59-.59Z" fill="#e7735a"/><path d="M131.28,102.26c-1.65,0-4.03-1.54-6-8.86-1.48-5.51-2.29-12.82-2.29-20.58s.81-15.08,2.29-20.58c1.97-7.32,4.35-8.86,6-8.86s4.03,1.54,6,8.86c1.48,5.51,2.29,12.82,2.29,20.58s-.81,15.08-2.29,20.58c-1.97,7.32-4.35,8.86-6,8.86ZM131.28,44.43c-3.5,0-7.24,11.41-7.24,28.39s3.74,28.39,7.24,28.39,7.24-11.41,7.24-28.39-3.74-28.39-7.24-28.39Z" fill="#2d405e"/><path d="M110.59,90.69c-2.18,0-3.25-.7-3.78-1.49-.92-1.37-.97-4.21,4.02-9.91,3.75-4.29,9.37-9.04,15.83-13.36,6.46-4.32,12.98-7.71,18.38-9.55,7.18-2.44,9.78-1.32,10.7.06s.97,4.21-4.02,9.91c-3.75,4.29-9.37,9.04-15.83,13.36-6.46,4.32-12.98,7.71-18.38,9.55-3.07,1.04-5.3,1.43-6.92,1.43ZM151.98,55.99c-4.66,0-13.95,3.59-24.73,10.81-14.11,9.45-21.51,18.91-19.56,21.81.46.69,1.46,1.03,2.9,1.03,4.66,0,13.95-3.59,24.73-10.81,6.38-4.27,11.93-8.95,15.62-13.18,3.45-3.94,4.92-7.17,3.94-8.64-.46-.69-1.46-1.03-2.9-1.03Z" fill="#2d405e"/><path d="M151.97,90.69c-1.62,0-3.85-.39-6.92-1.43-5.4-1.83-11.92-5.22-18.38-9.55-6.46-4.32-12.08-9.07-15.83-13.36-4.99-5.71-4.94-8.54-4.02-9.91.92-1.37,3.52-2.5,10.7-.06,5.4,1.83,11.92,5.22,18.38,9.55,6.46,4.32,12.08,9.07,15.83,13.36,4.99,5.71,4.94,8.54,4.02,9.91-.53.79-1.61,1.49-3.78,1.49ZM110.58,55.99c-1.44,0-2.44.34-2.9,1.03-1.95,2.91,5.45,12.37,19.56,21.81,14.11,9.45,25.68,12.68,27.62,9.78.98-1.46-.49-4.69-3.94-8.64-3.69-4.22-9.24-8.9-15.62-13.18-10.78-7.22-20.07-10.81-24.73-10.81Z" fill="#2d405e"/><path d="M134.95,72.82c0,2.03-1.64,3.67-3.67,3.67s-3.67-1.64-3.67-3.67,1.64-3.67,3.67-3.67,3.67,1.64,3.67,3.67Z" fill="#e06c61"/><path d="M111.29,118.5l-.43-.96c.22-.1,21.79-9.72,42.03-7.83l-.1,1.05c-19.97-1.86-41.29,7.64-41.5,7.74Z" fill="#2d405e"/><path d="M111.29,122.52l-.43-.96c.22-.1,21.79-9.72,42.03-7.83l-.1,1.05c-19.97-1.86-41.29,7.64-41.5,7.74Z" fill="#2d405e"/><path d="M90.65,50.77c-.21-.1-21.54-9.6-41.5-7.74l-.1-1.05c20.25-1.89,41.82,7.73,42.03,7.83l-.43.96Z" fill="#2d405e"/><path d="M90.65,54.78c-.21-.1-21.54-9.6-41.5-7.74l-.1-1.05c20.25-1.89,41.82,7.73,42.03,7.83l-.43.96Z" fill="#2d405e"/><path d="M90.65,59.13c-.21-.1-21.54-9.6-41.5-7.74l-.1-1.05c20.25-1.89,41.82,7.73,42.03,7.83l-.43.96Z" fill="#2d405e"/><path d="M90.65,69.2c-.21-.1-21.54-9.6-41.5-7.74l-.1-1.05c20.25-1.89,41.82,7.73,42.03,7.83l-.43.96Z" fill="#2d405e"/><path d="M90.65,73.22c-.21-.1-21.54-9.6-41.5-7.74l-.1-1.05c20.25-1.89,41.82,7.73,42.03,7.83l-.43.96Z" fill="#2d405e"/><path d="M90.65,77.56c-.21-.1-21.54-9.6-41.5-7.74l-.1-1.05c20.25-1.89,41.82,7.73,42.03,7.83l-.43.96Z" fill="#2d405e"/><rect x="49.15" y="79.11" width="1.05" height="34.9" fill="#2d405e"/><path d="M74.46,112.29c-.27,0-.53-.05-.79-.14-2.66-.96-4.05-6.66-5.53-12.69-.73-3-1.43-5.83-2.22-7.71-.34-.79-.81-1.22-1.44-1.29-3.11-.38-9.28,6.88-11.4,9.71l-.84-.63c.82-1.09,8.09-10.64,12.37-10.12,1.02.12,1.79.77,2.28,1.93.83,1.96,1.53,4.83,2.28,7.87,1.22,4.98,2.74,11.18,4.87,11.95.49.18,1.01.05,1.61-.4,5.22-3.84,11.26-10.26,11.32-10.33l.77.72c-.06.07-6.17,6.56-11.46,10.46-.61.45-1.22.68-1.8.68Z" fill="#e06c61"/><path d="M90.65,108.27c-.21-.1-21.54-9.6-41.5-7.74l-.1-1.05c20.25-1.89,41.82,7.73,42.03,7.83l-.43.96Z" fill="#2d405e"/><path d="M92.47,138.22h16.9v4.31c0,.62-.5,1.12-1.12,1.12h-14.65c-.62,0-1.12-.5-1.12-1.12v-4.31h0Z" fill="#413330"/></svg>